<?xml version="1.0" encoding="iso-8859-1"?>
<!-- Generator: Adobe Illustrator 19.0.0, SVG Export Plug-In . SVG Version: 6.00 Build 0)  -->
<svg version="1.1" id="Capa_1" xmlns="http://www.w3.org/2000/svg" xmlns:xlink="http://www.w3.org/1999/xlink" x="0px" y="0px"
	 viewBox="0 0 485.548 485.548" style="enable-background:new 0 0 485.548 485.548;" xml:space="preserve">
<g>
	<g>
		<path d="M473.45,337.588c-5.912-4.992-13.672-7.072-21.304-5.76l-8.384,1.456l-91.104-98.696c-1.52-1.64-3.648-2.576-5.88-2.576
			h-8V131.324l19.48-19.48c1.792,0.096,4.056,0.184,6.832,0.184c16.664,0,48.856-2.984,69.792-23.92
			c28.664-28.664,23.672-78.44,23.448-80.544c-0.4-3.744-3.352-6.696-7.096-7.096c-2.096-0.224-51.88-5.216-80.544,23.448
			c-24.432,24.432-24.416,64.104-23.736,76.616l-21.824,21.824c-1.512,1.496-2.352,3.536-2.352,5.656V156.7l-16.168-16.168
			c0.68-12.52,0.696-52.192-23.736-76.616c-28.664-28.664-78.448-23.68-80.544-23.448c-3.744,0.4-6.696,3.352-7.096,7.096
			c-0.224,2.104-5.216,51.888,23.448,80.544c20.936,20.936,53.128,23.92,69.792,23.92c2.776,0,5.04-0.088,6.832-0.184l27.472,27.48
			v52.688h-8c-2.272,0-4.432,0.96-5.944,2.648l-69.616,77.352h-76.44c0-4.416-3.584-8-8-8h-32h-112c-4.416,0-8,3.584-8,8v128
			c0,4.416,3.584,8,8,8h112h32c4.416,0,8-3.584,8-8h22.112l85.528,42.768c3.704,1.848,7.704,2.768,11.696,2.768
			c4.552,0,9.096-1.192,13.168-3.568l174.512-101.8c8-4.672,12.976-13.328,12.976-22.584
			C482.77,349.86,479.378,342.564,473.45,337.588z M381.994,35.228c17.712-17.704,47.48-19.36,60.768-19.176
			c0.24,13.28-1.416,42.968-19.192,60.752c-13.6,13.6-34.2,17.768-49.112,18.848l41.984-41.984L405.13,42.356l-41.976,41.976
			C364.226,69.46,368.354,48.868,381.994,35.228z M248.442,82.348L237.13,93.66l41.96,41.96c-14.88-1.08-35.456-5.184-49.096-18.824
			c-17.712-17.712-19.392-47.472-19.176-60.768c13.28-0.264,42.968,1.416,60.752,19.192c13.576,13.576,17.712,34.176,18.816,49.072
			L248.442,82.348z M114.778,432.012h-96v-112h96V432.012z M146.778,432.012h-16v-112h16V432.012z M318.338,248.012h24.936
			l81.728,88.536L293.498,359.42l-39.696-39.696L318.338,248.012z M461.746,366.356l-174.52,101.8
			c-2.968,1.736-6.584,1.84-9.656,0.312l-87.216-43.608c-1.104-0.56-2.336-0.848-3.576-0.848h-24v-96h76.688l63.024,63.024
			c2.768,2.768,4.288,6.44,4.288,10.344c0,8.072-6.56,14.632-14.632,14.632c-3.904,0-7.576-1.52-10.344-4.288l-41.368-41.368
			l-11.312,11.312l41.368,41.368c5.792,5.792,13.48,8.976,21.656,8.976c16.896,0,30.632-13.736,30.632-30.632
			c0-8.176-3.184-15.872-8.976-21.656l-6.472-6.472l147.56-25.664c2.96-0.52,5.976,0.304,8.272,2.232
			c2.296,1.936,3.616,4.768,3.616,7.768C466.778,361.18,464.85,364.54,461.746,366.356z"/>
	</g>
</g>
<g>
	<g>
		<path d="M210.778,176.012c-22.056,0-40-17.944-40-40c0-4.416-3.584-8-8-8s-8,3.584-8,8c0,22.056-17.944,40-40,40
			c-4.416,0-8,3.584-8,8c0,4.416,3.584,8,8,8c22.056,0,40,17.944,40,40c0,4.416,3.584,8,8,8s8-3.584,8-8c0-22.056,17.944-40,40-40
			c4.416,0,8-3.584,8-8C218.778,179.596,215.194,176.012,210.778,176.012z M162.778,203.188
			c-4.728-7.848-11.336-14.448-19.176-19.176c7.84-4.728,14.448-11.336,19.176-19.176c4.728,7.848,11.336,14.448,19.176,19.176
			C174.106,188.74,167.506,195.348,162.778,203.188z"/>
	</g>
</g>
<g>
</g>
<g>
</g>
<g>
</g>
<g>
</g>
<g>
</g>
<g>
</g>
<g>
</g>
<g>
</g>
<g>
</g>
<g>
</g>
<g>
</g>
<g>
</g>
<g>
</g>
<g>
</g>
<g>
</g>
</svg>
