<svg xmlns="http://www.w3.org/2000/svg" width="428.518" height="496.212" viewBox="0 0 428.518 496.212">
  <g id="bill" transform="translate(1.504 2)">
    <path id="Path_1267" data-name="Path 1267" d="M3.9,453.6a6,6,0,0,0,6.344-.723L43.9,425.961l33.652,26.918a6,6,0,0,0,7.5,0L118.7,425.961l33.648,26.918a6,6,0,0,0,7.5,0l36.762-29.41A119.961,119.961,0,1,0,311.66,252.258v-86.3h78.711a6,6,0,0,0,6-6V48.355A48.414,48.414,0,0,0,350.336.055V0H55.121A54.691,54.691,0,0,0,.5,54.625V448.191a6,6,0,0,0,3.4,5.41Zm409.039-81.57A107.969,107.969,0,1,1,304.969,264.066,107.973,107.973,0,0,1,412.938,372.031ZM384.371,48.355v105.6H311.66V48.355a36.356,36.356,0,0,1,72.711,0ZM12.5,54.625A42.673,42.673,0,0,1,55.121,12H316.188A48.241,48.241,0,0,0,299.66,48.355V252.191A119.953,119.953,0,0,0,191.777,411.773l-2.16,1.914-33.527,26.82L122.445,413.59a6,6,0,0,0-7.5,0L81.3,440.508,47.645,413.59a6,6,0,0,0-7.5,0L12.5,435.711Zm0,0" stroke="#000" stroke-width="4"/>
    <path id="Path_1268" data-name="Path 1268" d="M45.316,203.465h2.672a6,6,0,0,0,0-12H45.316a6,6,0,0,0,0,12Zm0,0" stroke="#000" stroke-width="4"/>
    <path id="Path_1269" data-name="Path 1269" d="M74.68,203.465h20.2a6,6,0,0,0,0-12H74.68a6,6,0,0,0,0,12Zm0,0" stroke="#000" stroke-width="4"/>
    <path id="Path_1270" data-name="Path 1270" d="M122,203.465H266.84a6,6,0,0,0,0-12H122a6,6,0,0,0,0,12Zm0,0" stroke="#000" stroke-width="4"/>
    <path id="Path_1271" data-name="Path 1271" d="M45.316,146.48h2.672a6,6,0,0,0,0-12H45.316a6,6,0,0,0,0,12Zm0,0" stroke="#000" stroke-width="4"/>
    <path id="Path_1272" data-name="Path 1272" d="M74.68,146.48h20.2a6,6,0,0,0,0-12H74.68a6,6,0,0,0,0,12Zm0,0" stroke="#000" stroke-width="4"/>
    <path id="Path_1273" data-name="Path 1273" d="M122,146.48H266.84a6,6,0,0,0,0-12H122a6,6,0,0,0,0,12Zm0,0" stroke="#000" stroke-width="4"/>
    <path id="Path_1274" data-name="Path 1274" d="M45.316,89.5h2.672a6,6,0,0,0,0-12H45.316a6,6,0,0,0,0,12Zm0,0" stroke="#000" stroke-width="4"/>
    <path id="Path_1275" data-name="Path 1275" d="M74.68,89.5h20.2a6,6,0,0,0,0-12H74.68a6,6,0,0,0,0,12Zm0,0" stroke="#000" stroke-width="4"/>
    <path id="Path_1276" data-name="Path 1276" d="M122,89.5H266.84a6,6,0,0,0,0-12H122a6,6,0,0,0,0,12Zm0,0" stroke="#000" stroke-width="4"/>
    <path id="Path_1277" data-name="Path 1277" d="M45.316,260.449h2.672a6,6,0,0,0,0-12H45.316a6,6,0,0,0,0,12Zm0,0" stroke="#000" stroke-width="4"/>
    <path id="Path_1278" data-name="Path 1278" d="M74.68,260.449h20.2a6,6,0,0,0,0-12H74.68a6,6,0,0,0,0,12Zm0,0" stroke="#000" stroke-width="4"/>
    <path id="Path_1279" data-name="Path 1279" d="M122,260.449h87.852a6,6,0,0,0,0-12H122a6,6,0,0,0,0,12Zm0,0" stroke="#000" stroke-width="4"/>
    <path id="Path_1280" data-name="Path 1280" d="M62.43,378.508c-.039,0-.078-.008-.121-.008a.651.651,0,0,0-.121.008,11,11,0,0,1-10.871-10.984,6,6,0,0,0-12,0,23.028,23.028,0,0,0,16.992,22.191v4.906a6,6,0,0,0,12,0v-4.906a22.99,22.99,0,0,0-6-45.184A10.99,10.99,0,1,1,73.3,333.539a6,6,0,0,0,12,0,23.034,23.034,0,0,0-16.988-22.191v-4.133a6,6,0,0,0-12,0v4.133a22.99,22.99,0,0,0,6,45.184,10.988,10.988,0,0,1,.121,21.977Zm0,0" stroke="#000" stroke-width="4"/>
    <path id="Path_1281" data-name="Path 1281" d="M116.969,375.227h50.719a6,6,0,0,0,0-12H116.969a6,6,0,0,0,0,12Zm0,0" stroke="#000" stroke-width="4"/>
    <path id="Path_1282" data-name="Path 1282" d="M254.531,360.746a6,6,0,1,0-9.125,7.793l33.043,38.7A6,6,0,0,0,286.8,408l76.957-62.609a6,6,0,0,0-7.57-9.309l-72.414,58.91Zm0,0" stroke="#000" stroke-width="4"/>
  </g>
</svg>
