<?xml version="1.0" encoding="UTF-8"?>
<svg id="Layer_2" data-name="Layer 2" xmlns="http://www.w3.org/2000/svg" viewBox="0 0 328.76 44.51">
  <defs>
    <style>
      .cls-1 {
        fill: #231f20;
      }
    </style>
  </defs>
  <g id="Layer_1-2" data-name="Layer 1">
    <g>
      <rect class="cls-1" y="2.7" width="9.97" height="41.23"/>
      <path class="cls-1" d="M40.41,14.06c-1.6-.97-3.49-1.46-5.67-1.46-2.28,0-4.25.54-5.9,1.62-1.65,1.08-2.82,2.57-3.5,4.46h-.34v-5.68h-9.36v30.92h9.84v-17.64c.01-1.18.23-2.19.65-3.02s1.03-1.47,1.81-1.92c.79-.45,1.69-.67,2.73-.67,1.56,0,2.78.48,3.65,1.45s1.31,2.31,1.3,4.03v17.78h9.85v-19.71c.01-2.32-.43-4.35-1.32-6.09-.89-1.74-2.14-3.09-3.74-4.07Z"/>
      <path class="cls-1" d="M62.58,21.05c.86-.64,1.86-.96,3-.96,1.41,0,2.55.45,3.43,1.35.88.9,1.41,2.14,1.6,3.72h9.2c-.07-2.54-.7-4.75-1.9-6.63-1.2-1.89-2.87-3.35-4.99-4.38-2.13-1.03-4.62-1.55-7.48-1.55-3.23,0-6.02.67-8.34,2.01-2.33,1.34-4.12,3.21-5.38,5.61-1.26,2.4-1.88,5.18-1.88,8.35s.62,5.93,1.87,8.32c1.25,2.4,3.04,4.26,5.37,5.61,2.33,1.34,5.12,2.01,8.39,2.01,2.9,0,5.41-.53,7.52-1.58,2.11-1.05,3.76-2.53,4.93-4.44,1.17-1.91,1.81-4.13,1.9-6.68h-9.2c-.12,1.09-.41,2.01-.87,2.77s-1.04,1.33-1.74,1.72c-.71.39-1.51.58-2.43.58-1.14,0-2.14-.32-3-.96-.86-.64-1.53-1.58-2-2.84-.48-1.25-.71-2.79-.71-4.62s.24-3.36.71-4.6c.48-1.24,1.14-2.18,2-2.82Z"/>
      <path class="cls-1" d="M101.4,12.58c-1.69,0-3.17.5-4.45,1.5s-2.19,2.52-2.76,4.56h-.32v-5.64h-9.56v30.92h9.84v-16.79c0-1.23.27-2.31.8-3.23s1.26-1.64,2.19-2.15c.93-.52,1.98-.78,3.15-.78.59,0,1.26.05,2.02.14.76.09,1.37.22,1.84.38v-8.56c-.42-.12-.87-.21-1.35-.27-.48-.06-.95-.09-1.41-.09Z"/>
      <path class="cls-1" d="M132.54,16.67c-1.33-1.34-2.91-2.36-4.73-3.04s-3.84-1.03-6.04-1.03c-3.11,0-5.82.67-8.11,2s-4.07,3.2-5.33,5.6c-1.26,2.4-1.89,5.19-1.89,8.39s.63,6.12,1.88,8.51c1.25,2.38,3.05,4.21,5.4,5.5,2.34,1.28,5.13,1.92,8.36,1.92,2.7,0,5.07-.41,7.13-1.24,2.05-.83,3.71-1.99,4.98-3.48,1.27-1.5,2.09-3.26,2.47-5.28l-9.04-.26c-.26.68-.64,1.26-1.15,1.73-.51.47-1.12.83-1.83,1.07-.71.24-1.5.36-2.38.36-1.26,0-2.35-.26-3.26-.79s-1.62-1.26-2.11-2.2c-.5-.95-.75-2.05-.75-3.31v-.26h20.62v-2.46c0-2.54-.37-4.79-1.11-6.75-.74-1.97-1.77-3.62-3.1-4.96ZM116.14,25.12c.05-.99.31-1.89.79-2.69.51-.84,1.2-1.5,2.07-1.99.87-.49,1.86-.73,2.96-.73s2.05.23,2.89.69c.84.46,1.5,1.1,1.98,1.92.48.82.73,1.75.75,2.8h-11.44Z"/>
      <path class="cls-1" d="M161.42,18.3h-.2c-.39-.94-.96-1.85-1.71-2.72-.75-.87-1.7-1.59-2.86-2.14-1.15-.56-2.54-.84-4.17-.84-2.16,0-4.18.56-6.05,1.69-1.87,1.13-3.39,2.87-4.54,5.21s-1.73,5.34-1.73,8.98.56,6.44,1.67,8.8,2.6,4.13,4.47,5.31c1.87,1.18,3.94,1.77,6.22,1.77,1.56,0,2.91-.25,4.06-.77,1.15-.51,2.1-1.18,2.87-2.01.76-.83,1.36-1.72,1.77-2.68h.3v5.01h9.74V2.7h-9.84v15.6ZM160.96,32.82c-.46,1.24-1.11,2.19-1.95,2.87s-1.87,1.02-3.06,1.02-2.25-.34-3.09-1.02-1.48-1.63-1.92-2.87c-.44-1.23-.66-2.68-.66-4.35s.22-3.11.65-4.33c.44-1.22,1.08-2.17,1.92-2.84.84-.67,1.88-1.01,3.1-1.01s2.22.33,3.07.99,1.5,1.6,1.95,2.82c.45,1.22.67,2.68.67,4.37s-.23,3.11-.68,4.35Z"/>
      <rect class="cls-1" x="176.94" y="13.01" width="9.84" height="30.92"/>
      <path class="cls-1" d="M181.87,0c-1.38,0-2.57.46-3.56,1.38s-1.49,2.02-1.49,3.31.5,2.41,1.49,3.33c.99.92,2.19,1.38,3.58,1.38s2.57-.46,3.55-1.38c.99-.92,1.48-2.02,1.48-3.31s-.49-2.41-1.48-3.33c-.99-.92-2.18-1.38-3.57-1.38Z"/>
      <path class="cls-1" d="M217.29,14.29c-1.87-1.13-3.88-1.69-6.03-1.69-1.62,0-3.02.28-4.18.84-1.16.56-2.11,1.27-2.86,2.14-.75.87-1.32,1.78-1.72,2.72h-.2V2.7h-9.84v41.23h9.74v-5.01h.3c.42.95,1.01,1.85,1.78,2.68.77.83,1.73,1.5,2.87,2.01,1.14.51,2.49.77,4.05.77,2.28,0,4.36-.59,6.23-1.77s3.36-2.95,4.47-5.31,1.66-5.29,1.66-8.8-.58-6.63-1.73-8.98c-1.16-2.35-2.67-4.09-4.54-5.21ZM212.8,32.82c-.44,1.24-1.08,2.19-1.92,2.87s-1.87,1.02-3.08,1.02-2.22-.34-3.07-1.02c-.85-.68-1.5-1.63-1.95-2.87-.45-1.23-.67-2.68-.67-4.35s.22-3.15.67-4.37c.45-1.22,1.1-2.16,1.94-2.82s1.87-.99,3.08-.99,2.25.34,3.09,1.01c.84.67,1.48,1.62,1.91,2.84.44,1.22.65,2.66.65,4.33s-.22,3.11-.65,4.35Z"/>
      <rect class="cls-1" x="228.17" y="2.7" width="9.84" height="41.23"/>
      <path class="cls-1" d="M267,15.31c-1.23-.88-2.68-1.55-4.35-2.01-1.66-.46-3.48-.69-5.46-.69-2.76,0-5.13.43-7.1,1.28-1.97.85-3.51,2.02-4.63,3.5-1.12,1.48-1.82,3.16-2.08,5.04l9.08.32c.21-.99.72-1.77,1.51-2.34.79-.56,1.84-.85,3.14-.85,1.21,0,2.17.28,2.88.85.71.56,1.07,1.36,1.07,2.4v.1c0,.63-.25,1.12-.74,1.46s-1.27.6-2.35.79c-1.07.18-2.49.35-4.25.51-1.57.13-3.05.39-4.43.78-1.38.38-2.6.94-3.66,1.68s-1.89,1.7-2.5,2.88c-.6,1.18-.91,2.63-.91,4.35,0,2.04.44,3.73,1.32,5.08.88,1.35,2.08,2.36,3.6,3.02,1.52.66,3.27,1,5.24,1,1.44,0,2.73-.18,3.88-.54,1.15-.36,2.15-.91,3-1.63s1.55-1.61,2.1-2.66h.24v4.31h9.26v-21.02c0-1.64-.34-3.09-1.02-4.37-.68-1.27-1.63-2.35-2.87-3.23ZM261.13,32.94c0,1.01-.26,1.89-.77,2.65s-1.19,1.35-2.04,1.78c-.85.43-1.81.64-2.87.64-1.13,0-2.06-.27-2.79-.81-.73-.54-1.1-1.32-1.1-2.34,0-.67.17-1.25.51-1.74.34-.49.84-.89,1.49-1.2.65-.31,1.44-.54,2.37-.68.46-.07.93-.14,1.43-.22.5-.08.98-.17,1.45-.28.47-.11.9-.22,1.3-.34.4-.12.74-.25,1.02-.4v2.94Z"/>
      <path class="cls-1" d="M293.41,12.58c-1.69,0-3.17.5-4.45,1.5s-2.19,2.52-2.76,4.56h-.32v-5.64h-9.56v30.92h9.84v-16.79c0-1.23.27-2.31.8-3.23s1.26-1.64,2.19-2.15c.93-.52,1.98-.78,3.15-.78.59,0,1.26.05,2.02.14.76.09,1.37.22,1.84.38v-8.56c-.42-.12-.87-.21-1.35-.27-.48-.06-.95-.09-1.41-.09Z"/>
      <path class="cls-1" d="M328.76,30.84v-2.46c0-2.54-.37-4.79-1.11-6.75-.74-1.97-1.77-3.62-3.1-4.96-1.33-1.34-2.91-2.36-4.73-3.04s-3.84-1.03-6.04-1.03c-3.11,0-5.82.67-8.11,2s-4.07,3.2-5.33,5.6c-1.26,2.4-1.89,5.19-1.89,8.39s.63,6.12,1.88,8.51c1.25,2.38,3.05,4.21,5.4,5.5,2.34,1.28,5.13,1.92,8.36,1.92,2.7,0,5.07-.41,7.13-1.24,2.05-.83,3.71-1.99,4.98-3.48,1.27-1.5,2.09-3.26,2.47-5.28l-9.04-.26c-.26.68-.64,1.26-1.15,1.73-.51.47-1.12.83-1.83,1.07-.71.24-1.5.36-2.38.36-1.26,0-2.35-.26-3.26-.79s-1.62-1.26-2.11-2.2c-.5-.95-.75-2.05-.75-3.31v-.26h20.62ZM311.03,20.44c.87-.49,1.86-.73,2.96-.73s2.05.23,2.89.69c.84.46,1.5,1.1,1.98,1.92.48.82.73,1.75.75,2.8h-11.44c.05-.99.31-1.89.79-2.69.51-.84,1.2-1.5,2.07-1.99Z"/>
    </g>
  </g>
</svg>