<svg xmlns="http://www.w3.org/2000/svg" width="42.488" height="42.481" viewBox="0 0 42.488 42.481">
  <g id="Group_491" data-name="Group 491" transform="translate(0)">
    <path id="Path_1116" data-name="Path 1116" d="M781.947,301.42h-10a39.446,39.446,0,0,0,2.473-3.685,11.755,11.755,0,0,0,6.982-2.517,2.768,2.768,0,0,0-3.245-4.481c-.171.115-.354.233-.546.353a29.328,29.328,0,0,0,1.905-12.486,3.008,3.008,0,0,0-3.013-2.744,2.995,2.995,0,0,0-2.988,3.125,26.822,26.822,0,0,1-.175,3.96,26.466,26.466,0,0,1-3.031-1.71,2.768,2.768,0,0,0-3.246,4.481,12.186,12.186,0,0,0,5.332,2.373c-.882,3.056-3.488,7.925-8.513,9.683-.838-5.271,0-10.373.809-15.313a60.039,60.039,0,0,0,1.02-8.8,19.577,19.577,0,0,0-.148-2.619,19.43,19.43,0,0,0,5.854-4.357,2.565,2.565,0,0,0-3.306-3.886,41.12,41.12,0,0,1-4.076,2.462,26.177,26.177,0,0,0-1.958-3.9,2.854,2.854,0,0,0-4.907.078,2.808,2.808,0,0,0,.013,2.845,20.015,20.015,0,0,1,2.436,6.239,40.907,40.907,0,0,1-6.132-1.058,2.565,2.565,0,0,0-1.752,4.792,18.484,18.484,0,0,0,7.841,2.085h.131c-.276,2.07-.784,4.223-1.318,6.488-1.116,4.722-2.266,9.595-1.586,14.688-2.919-1.8-5.794-6.415-6.716-9.429a12.18,12.18,0,0,0,5.326-2.373,2.768,2.768,0,0,0-3.245-4.481,26.518,26.518,0,0,1-3.031,1.71,26.815,26.815,0,0,1-.175-3.96,3.007,3.007,0,0,0-6-.381,29.327,29.327,0,0,0,1.905,12.486c-.192-.119-.375-.237-.546-.353a2.768,2.768,0,0,0-3.245,4.481,11.755,11.755,0,0,0,6.982,2.517,39.465,39.465,0,0,0,2.474,3.685h-10a.531.531,0,1,0,0,1.062h41.419a.531.531,0,1,0,0-1.062Zm-30.067,0a36.86,36.86,0,0,1-3.065-4.486.541.541,0,0,0-.467-.262,10.579,10.579,0,0,1-6.63-2.3,1.706,1.706,0,0,1,2.007-2.757c.549.37,1.2.758,1.936,1.155a.532.532,0,0,0,.743-.672,28.967,28.967,0,0,1-2.384-13.415,1.94,1.94,0,0,1,1.955-1.765,1.9,1.9,0,0,1,1.387.591,1.931,1.931,0,0,1,.541,1.428,29.335,29.335,0,0,0,.272,4.87.531.531,0,0,0,.751.412,29.917,29.917,0,0,0,3.838-2.109,1.706,1.706,0,0,1,2.006,2.757,10.97,10.97,0,0,1-5.409,2.245.531.531,0,0,0-.459.651c.81,3.426,4.57,9.636,8.391,11.189a.53.53,0,0,0,.722-.587c-.962-5.254.244-10.359,1.41-15.3a61.425,61.425,0,0,0,1.416-7.229.531.531,0,0,0-.563-.588,17.017,17.017,0,0,1-8.069-1.952,1.5,1.5,0,0,1,1.021-2.811,41.492,41.492,0,0,0,7,1.144.531.531,0,0,0,.562-.611,20.645,20.645,0,0,0-2.686-7.28,1.785,1.785,0,0,1,1.548-2.682,1.782,1.782,0,0,1,1.526.853,25.146,25.146,0,0,1,2.086,4.273.53.53,0,0,0,.737.286,42.207,42.207,0,0,0,4.719-2.8,1.5,1.5,0,0,1,1.932,2.282,17.98,17.98,0,0,1-5.864,4.268.531.531,0,0,0-.323.566,18.614,18.614,0,0,1,.191,2.859,59.328,59.328,0,0,1-1.006,8.639c-.855,5.216-1.741,10.609-.7,16.273a.531.531,0,0,0,.671.414c6.2-1.812,9.184-7.9,9.967-11.207a.531.531,0,0,0-.459-.65,10.971,10.971,0,0,1-5.41-2.245,1.706,1.706,0,0,1,2.007-2.757,29.839,29.839,0,0,0,3.838,2.109.531.531,0,0,0,.751-.412,29.4,29.4,0,0,0,.272-4.87,1.946,1.946,0,0,1,3.882-.254,28.972,28.972,0,0,1-2.384,13.415.531.531,0,0,0,.743.671c.737-.4,1.388-.786,1.936-1.155a1.706,1.706,0,0,1,2.007,2.757,10.682,10.682,0,0,1-6.63,2.3.532.532,0,0,0-.467.262,36.938,36.938,0,0,1-3.065,4.486H751.88Z" transform="translate(-739.995 -260.001)"/>
    <path id="Path_1117" data-name="Path 1117" d="M810.713,269.136a3.357,3.357,0,1,0-3.357-3.357A3.361,3.361,0,0,0,810.713,269.136Zm0-5.653a2.3,2.3,0,1,1-2.295,2.3A2.3,2.3,0,0,1,810.713,263.483Z" transform="translate(-771.586 -261.136)"/>
    <path id="Path_1118" data-name="Path 1118" d="M742.785,276.807A2.785,2.785,0,1,0,740,274.022,2.788,2.788,0,0,0,742.785,276.807Zm0-4.508a1.723,1.723,0,1,1-1.723,1.723A1.725,1.725,0,0,1,742.785,272.3Z" transform="translate(-739.997 -265.27)"/>
    <path id="Path_1119" data-name="Path 1119" d="M756.364,266.624a3.312,3.312,0,1,0-3.312-3.312A3.316,3.316,0,0,0,756.364,266.624Zm0-5.562a2.25,2.25,0,1,1-2.25,2.25A2.252,2.252,0,0,1,756.364,261.062Z" transform="translate(-746.118 -260)"/>
    <path id="Path_1120" data-name="Path 1120" d="M797.247,279.238a3.057,3.057,0,1,0,3.057-3.057A3.06,3.06,0,0,0,797.247,279.238Zm3.057-1.995a2,2,0,1,1-1.995,1.995A2,2,0,0,1,800.3,277.243Z" transform="translate(-766.845 -267.589)"/>
  </g>
</svg>
