<svg width="138" height="32" viewBox="0 0 138 32" fill="none" xmlns="http://www.w3.org/2000/svg">
<path d="M4.5 28V19.4289L12 15.143L4.5 28Z" fill="#8B00FF"/>
<path d="M7.5 12.5711L12 15.143L4.5 19.4289L0 16.857L7.5 4V12.5711Z" fill="#8B00FF"/>
<path d="M21.2219 22.6874H18V9.29027H21.2219V22.6874Z" fill="black"/>
<path d="M25.8105 16.4801V22.6874H22.7452V12.1037H25.8105V15.0734H25.8328C26.3251 12.6396 27.6004 11.8134 29.3009 11.8134C31.6055 11.8134 32.5676 13.3317 32.5676 15.6093V22.6874H29.5246V16.4801C29.5246 15.386 29.0324 14.5598 27.7571 14.5598C26.5265 14.5598 25.8105 15.2743 25.8105 16.4801Z" fill="black"/>
<path d="M41.2536 16.7033C41.0075 15.4753 40.4034 14.5821 39.0386 14.5821C37.6737 14.5821 36.6892 15.4306 36.6892 17.3732C36.6892 19.2711 37.629 20.2089 39.0609 20.2089C40.4705 20.2089 41.0075 19.2488 41.276 17.9091L44.2071 18.4673C43.8491 21.236 42.3052 23 39.1281 23C35.7719 23 33.5568 21.1244 33.5568 17.4625C33.5568 13.89 35.7271 11.8134 39.0609 11.8134C42.3947 11.8134 43.782 13.4434 44.2071 16.2791L41.2536 16.7033Z" fill="black"/>
<path d="M48.3266 22.6874H45.2613V12.1037H48.3266V15.8772H48.3714C48.886 12.6619 49.7586 12.1037 51.2353 12.1037H51.7499V15.5869H50.5864C48.8636 15.5869 48.3266 16.0558 48.3266 17.6411V22.6874Z" fill="black"/>
<path d="M57.5977 14.3365C56.2553 14.3365 55.4721 14.9617 55.2708 16.4577H59.7457C59.6562 15.051 58.9626 14.3365 57.5977 14.3365ZM57.6425 22.9777C54.4429 22.9777 52.2055 21.1467 52.2055 17.6188C52.2055 13.9569 54.2415 11.8134 57.6872 11.8134C60.9539 11.8134 62.5425 13.89 62.5425 16.7703C62.5425 17.2392 62.5425 17.5965 62.4978 18.177H55.2484C55.4498 19.6954 56.2553 20.3652 57.6872 20.3652C59.0968 20.3652 59.5667 19.673 59.8128 18.8469L62.453 19.5837C61.9384 21.504 60.5512 22.9777 57.6425 22.9777Z" fill="black"/>
<path d="M68.4375 20.2536C69.8247 20.2536 70.675 19.2711 70.675 17.5295V17.3285C70.675 15.6093 69.8247 14.5375 68.4375 14.5375C66.8937 14.5375 66.2 15.6093 66.2 17.4625C66.2 19.2041 66.8713 20.2536 68.4375 20.2536ZM70.675 22.6874V19.8293H70.6078C70.0932 22.0622 68.885 23 67.0727 23C64.4996 23 63.1795 20.9011 63.1795 17.4625C63.1795 13.89 64.5667 11.7911 67.1174 11.8134C68.9521 11.7911 70.1156 12.7289 70.6302 14.9841H70.675V9H73.7179V22.6874H70.675Z" fill="black"/>
<path d="M78.3458 10.9872H75.1686V9H78.3458V10.9872ZM78.301 22.6874H75.2357V12.1037H78.301V22.6874Z" fill="black"/>
<path d="M85.1083 20.2536C86.6298 20.2536 87.3234 19.1818 87.3234 17.3509C87.3234 15.5869 86.6521 14.5598 85.1083 14.5598C83.6987 14.5598 82.8708 15.5199 82.8708 17.2616V17.4625C82.8708 19.1818 83.6987 20.2536 85.1083 20.2536ZM82.8708 9V14.9617H82.9156C83.4302 12.7289 84.6384 11.8134 86.4731 11.8134C89.0238 11.8134 90.3439 13.89 90.3439 17.3285C90.3439 20.9011 88.9791 23 86.406 23C84.5713 23 83.4302 22.0622 82.9156 19.8293H82.8708V22.6874H79.8055V9H82.8708Z" fill="black"/>
<path d="M94.4567 9V22.6874H91.3914V9H94.4567Z" fill="black"/>
<path d="M100.127 20.4545C101.424 20.4545 102.274 19.6954 102.274 18.6236V18.311H99.9923C99.0973 18.311 98.5603 18.7129 98.5603 19.2935C98.5603 19.941 98.963 20.4545 100.127 20.4545ZM102.274 22.6874V20.0973H102.23C101.76 21.9059 100.596 22.9107 98.8064 22.9107C96.9717 22.9107 95.5845 21.9059 95.5845 19.8293C95.5845 17.9091 96.7256 16.5917 99.5224 16.5917H102.274V16.1451C102.274 15.0064 101.782 14.3812 100.619 14.3812C99.6119 14.3812 98.963 14.8278 98.7617 16.0558L95.8977 15.6539C96.1662 13.4434 97.464 11.8581 100.753 11.8581C103.975 11.8581 105.317 13.4211 105.317 16.1228V22.6874H102.274Z" fill="black"/>
<path d="M109.784 22.6874H106.719V12.1037H109.784V15.8772H109.829C110.343 12.6619 111.216 12.1037 112.693 12.1037H113.207V15.5869H112.044C110.321 15.5869 109.784 16.0558 109.784 17.6411V22.6874Z" fill="black"/>
<path d="M119.055 14.3365C117.713 14.3365 116.93 14.9617 116.728 16.4577H121.203C121.114 15.051 120.42 14.3365 119.055 14.3365ZM119.1 22.9777C115.9 22.9777 113.663 21.1467 113.663 17.6188C113.663 13.9569 115.699 11.8134 119.145 11.8134C122.411 11.8134 124 13.89 124 16.7703C124 17.2392 124 17.5965 123.955 18.177H116.706C116.907 19.6954 117.713 20.3652 119.145 20.3652C120.554 20.3652 121.024 19.673 121.27 18.8469L123.911 19.5837C123.396 21.504 122.009 22.9777 119.1 22.9777Z" fill="black"/>
</svg>
